HIERARCHY
ROOT Hips
{
	OFFSET 0.000000 0.000000 0.000000 
	CHANNELS 6 Xposition Yposition Zposition Yrotation Zrotation Xrotation 
	JOINT Lumbar
	{
		OFFSET 0.000000 0.000000 0.000000 
		CHANNELS 3 Zrotation Xrotation Yrotation
		JOINT Neck
		{
			OFFSET 0.000000 0.445665 0.000000 
			CHANNELS 3 Zrotation Xrotation Yrotation
			End Site
			{
				OFFSET 0.000000 0.227535 0.000000 
			}
		}
		JOINT RightShoulder
		{
			OFFSET 0.019635 0.377685 0.194865 
			CHANNELS 3 Zrotation Xrotation Yrotation
			JOINT RightElbow
			{
				OFFSET 0.000000 -0.243375 0.000000 
				CHANNELS 2 Zrotation Yrotation
				JOINT RightWrist
				{
					OFFSET 0.000000 -0.264825 0.000000 
					CHANNELS 2 Zrotation Xrotation
					End Site
					{
						OFFSET 0.006600 -0.176220 0.000990 
					}
				}
			}
		}
		JOINT LeftShoulder
		{
			OFFSET 0.019635 0.377685 -0.194865 
			CHANNELS 3 Zrotation Xrotation Yrotation
			JOINT LeftElbow
			{
				OFFSET 0.000000 -0.243375 0.000000 
				CHANNELS 2 Zrotation Yrotation
				JOINT LeftWrist
				{
					OFFSET 0.000000 -0.264825 0.000000 
					CHANNELS 2 Zrotation Xrotation
					End Site
					{
						OFFSET 0.006600 -0.176220 -0.000990 
					}
				}
			}
		}
	}
	JOINT RightHip
	{
		OFFSET 0.052140 -0.069960 0.075570 
		CHANNELS 3 Zrotation Xrotation Yrotation
		JOINT RightKnee
		{
			OFFSET 0.000000 -0.402270 0.000000 
			CHANNELS 1 Zrotation
			JOINT RightAnkle
			{
				OFFSET 0.000000 -0.404085 0.000000 
				CHANNELS 3 Zrotation Xrotation Yrotation
				End Site
				{
					OFFSET 0.204105 -0.089430 0.008415 
				}
			}
		}
	}
	JOINT LeftHip
	{
		OFFSET 0.052140 -0.069960 -0.075570 
		CHANNELS 3 Zrotation Xrotation Yrotation
		JOINT LeftKnee
		{
			OFFSET 0.000000 -0.402270 0.000000 
			CHANNELS 1 Zrotation
			JOINT LeftAnkle
			{
				OFFSET 0.000000 -0.404085 0.000000 
				CHANNELS 3 Zrotation Xrotation Yrotation
				End Site
				{
					OFFSET 0.204105 -0.089430 -0.008415 
				}
			}
		}
	}
}
MOTION
Frames: 29
Frame Time: 0.02
-0 0.95578 -1e-05 166.79224 0 -4.94261 4.14998 5.96131 -8.81623 -38.55509 7.43231 9.50188 35.59558 -28.76687 10.47563 12.33505 82.3891 -2.38294 -3.89032 31.88136 0.87529 -18.41401 9.55718 -79.53473 -2.68646 3.3091 -3.65545 1.95909 7.90511 -6.42407 -12.77495 -1.54844 -6.24615 -6.21569 5.56888 19.07974 -6.30041 -3.23196 2.53165 6.33071
0.0016 0.95572 0.00462 166.16966 0 -4.96364 3.76436 5.89535 -8.99448 -38.76644 7.61257 9.45884 36.03949 -28.90783 10.60582 12.76693 82.45304 -2.59276 -4.22003 32.03189 0.97413 -18.70406 9.59094 -79.6832 -2.61698 3.318 -2.96261 1.84815 8.58222 -7.25799 -12.69807 -1.56979 -6.41131 -6.34889 5.26547 19.4837 -5.93161 -3.28643 2.54523 6.37989
0.00321 0.95565 0.00922 165.54712 0 -4.98473 3.38024 5.82682 -9.17274 -38.97748 7.79335 9.41867 36.47926 -29.04938 10.73928 13.19678 82.51642 -2.80117 -4.54739 32.18235 1.07242 -18.98219 9.62332 -79.83045 -2.54812 3.32671 -2.26838 1.74008 9.26188 -8.09527 -12.62168 -1.59087 -6.57881 -6.48195 4.96318 19.88779 -5.56336 -3.34086 2.55864 6.42873
0.00482 0.95558 0.01379 164.9206 0 -5.00458 2.99766 5.7489 -9.35151 -39.18715 7.97634 9.38696 36.90855 -29.19261 10.88532 13.62423 82.57845 -3.00732 -4.8702 32.33235 1.17014 -19.23049 9.65177 -79.97467 -2.48096 3.33513 -1.56452 1.63907 9.95883 -8.95007 -12.54462 -1.61131 -6.75922 -6.61553 4.66072 20.29683 -5.1934 -3.39641 2.57117 6.47508
0.00638 0.95554 0.01853 164.31748 0 -5.02894 2.60608 5.72257 -9.5261 -39.40145 8.14565 9.3073 37.39549 -29.32447 10.96266 14.06623 82.64793 -3.22706 -5.21908 32.48278 1.27164 -19.65484 9.70252 -80.13543 -2.40471 3.34554 -0.91486 1.49667 10.56487 -9.70723 -12.46886 -1.63545 -6.87357 -6.74607 4.35711 20.68026 -4.83213 -3.44692 2.58798 6.53268
0.00806 0.95544 0.0229 163.66391 0 -5.04517 2.23448 5.58591 -9.71036 -39.60751 8.34506 9.33127 37.75858 -29.48196 11.18662 14.47578 82.70141 -3.41671 -5.51117 32.63352 1.36452 -19.69419 9.70508 -80.26073 -2.34782 3.35142 -0.14907 1.44463 11.36207 -10.67339 -12.39198 -1.65154 -7.12595 -6.88309 4.05766 21.11703 -4.45313 -3.50746 2.59598 6.56775
0.0102 0.95517 0.02635 162.86139 0 -5.02654 1.90525 5.14016 -9.91884 -39.78073 8.62468 9.63451 37.78876 -29.70257 11.82367 14.81373 82.71188 -3.53466 -5.65945 32.77816 1.44004 -18.73544 9.57795 -80.29037 -2.3442 3.34733 0.95194 1.62693 12.73144 -12.23646 -12.2959 -1.64666 -7.79404 -7.04096 3.74977 21.72264 -4.01021 -3.60343 2.5766 6.52788
0.01246 0.95486 0.02941 162.00937 0 -5.00195 1.59823 4.58358 -10.13768 -39.94755 8.93534 10.04372 37.69193 -29.95054 12.60704 15.11563 82.70594 -3.62008 -5.74792 32.92476 1.50587 -17.37545 9.40156 -80.28376 -2.36019 3.33829 2.1682 1.90303 14.28569 -14.00746 -12.20114 -1.63347 -8.5958 -7.20495 3.44947 22.37883 -3.55175 -3.70826 2.54882 6.46735
0.01462 0.95458 0.03258 161.18454 0 -4.98818 1.28888 4.07972 -10.35379 -40.12424 9.23428 10.40964 37.64774 -30.19147 13.32006 15.42316 82.70679 -3.71335 -5.85578 33.0749 1.5719 -16.15476 9.24507 -80.29234 -2.36725 3.32977 3.32438 2.14688 15.73022 -15.67405 -12.1166 -1.62319 -9.31491 -7.36447 3.15821 22.99864 -3.10944 -3.80404 2.52691 6.42477
0.01697 0.95424 0.03602 160.33773 0 -4.94026 0.94659 3.56504 -10.56189 -40.27203 9.5239 10.75601 37.62639 -30.4103 14.0529 15.77745 82.71063 -3.83662 -5.99753 33.20548 1.65521 -15.11384 9.09835 -80.30654 -2.37422 3.32822 4.51516 2.34863 17.28916 -17.38719 -11.98798 -1.61632 -10.12672 -7.53127 2.81402 23.67484 -2.62844 -3.92078 2.49657 6.34693
0.01895 0.95401 0.03881 159.5278 0 -4.96195 0.67848 3.04772 -10.78865 -40.47784 9.83931 11.167 37.52551 -30.68082 14.77464 16.024 82.70413 -3.88872 -6.05319 33.37832 1.70078 -13.60572 8.9205 -80.30015 -2.38623 3.31141 5.65843 2.65818 18.64603 -19.0466 -11.94948 -1.60069 -10.77681 -7.68415 2.58222 24.24571 -2.22483 -3.99627 2.48152 6.33653
0.01995 0.9541 0.03994 158.8065 0 -5.17812 0.60722 2.5405 -11.06819 -40.85105 10.22702 11.74119 37.25173 -31.09475 15.46977 15.99716 82.67508 -3.76048 -5.89697 33.65835 1.63955 -10.88645 8.66122 -80.24844 -2.40582 3.25009 6.66632 3.2611 19.46557 -20.55776 -12.17709 -1.56021 -10.95186 -7.79914 2.65568 24.51307 -2.03417 -3.95328 2.51293 6.52689
0.02057 0.95431 0.04042 158.12848 0 -5.46429 0.6104 2.03644 -11.3651 -41.28169 10.63787 12.37465 36.89958 -31.55845 16.14144 15.8603 82.63594 -3.56013 -5.65412 33.98243 1.54141 -7.71669 8.37391 -80.17694 -2.4301 3.17431 7.61745 3.96561 20.06274 -21.99639 -12.49236 -1.51166 -10.95917 -7.89971 2.84243 24.6729 -1.92267 -3.86896 2.55963 6.78415
0.02132 0.95448 0.04116 157.44754 0 -5.71802 0.5811 1.5371 -11.65202 -41.68255 11.03264 12.97408 36.57283 -31.99444 16.79748 15.76374 82.59998 -3.38752 -5.44358 34.29239 1.46363 -4.76288 8.10414 -80.11256 -2.45324 3.10745 8.57953 4.61159 20.71899 -23.43715 -12.75557 -1.46859 -11.04001 -8.00535 2.9796 24.88202 -1.77806 -3.80515 2.59784 7.00446
0.02223 0.9546 0.04201 156.69516 0 -5.97465 0.54659 1.00718 -11.94959 -42.09933 11.45256 13.60755 36.284 -32.45262 17.56884 15.70679 82.56891 -3.23536 -5.26065 34.5779 1.37109 -1.73837 7.81162 -80.05416 -2.47283 3.0303 9.61043 5.31373 21.56037 -25.02276 -13.06918 -1.41771 -11.13528 -8.11679 3.10958 25.09059 -1.62128 -3.73429 2.64212 7.25132
0.02272 0.95484 0.04249 156.10127 0 -6.24138 0.54066 0.54406 -12.22713 -42.49591 11.82449 14.18231 35.90019 -32.87637 18.0935 15.54178 82.52608 -3.02349 -5.00053 34.92427 1.29976 1.22894 7.5614 -79.97993 -2.50073 2.97148 10.48037 5.92092 21.95909 -26.27741 -13.30019 -1.38112 -11.16099 -8.21346 3.2806 25.27477 -1.50828 -3.66828 2.6777 7.45948
0.0222 0.95537 0.04211 155.94566 0 -6.52354 0.59262 0.25779 -12.46116 -42.82906 12.0638 14.58388 35.26638 -33.18942 17.93325 15.10477 82.44811 -2.66864 -4.54793 35.43223 1.30375 4.02481 7.42707 -79.85953 -2.54975 2.96427 10.94148 6.24854 21.20129 -26.7147 -13.26869 -1.38737 -11.01626 -8.26613 3.54345 25.41175 -1.50163 -3.62484 2.68386 7.54043
0.02125 0.95601 0.04137 155.94634 0 -6.81254 0.67127 0.04065 -12.67167 -43.13865 12.25267 14.92286 34.54227 -33.46638 17.52641 14.56328 82.35984 -2.25601 -4.02128 35.99892 1.32889 6.72648 7.33792 -79.72535 -2.60692 2.97633 11.23786 6.47543 20.00051 -26.80605 -13.15384 -1.40797 -10.8096 -8.30584 3.84247 25.52867 -1.53535 -3.58784 2.68107 7.58088
0.02047 0.95659 0.04076 155.86814 0 -7.09547 0.73934 -0.20333 -12.88201 -43.45498 12.46102 15.28804 33.86378 -33.76228 17.23813 14.0699 82.27952 -1.86667 -3.52887 36.53616 1.33941 9.40707 7.23352 -79.60255 -2.66076 2.98144 11.59493 6.74279 18.99685 -27.00254 -13.08518 -1.42121 -10.6442 -8.35567 4.12082 25.65869 -1.54769 -3.5484 2.68357 7.6427
0.0198 0.95724 0.04027 155.82397 0 -7.39363 0.80317 -0.46734 -13.13762 -43.79046 12.68532 15.66596 33.16036 -34.05015 16.92238 13.56918 82.18438 -1.48551 -3.02991 37.0874 1.37007 12.3775 7.10602 -79.45776 -2.71345 2.97905 12.01024 7.03536 18.01201 -27.41484 -12.98294 -1.43804 -10.42041 -8.38644 4.42105 25.76864 -1.57616 -3.50536 2.68159 7.69467
0.01879 0.95777 0.03945 155.74627 0 -7.66044 0.88158 -0.67232 -13.29462 -44.07924 12.86339 16.00027 32.49192 -34.34434 16.60471 13.0614 82.11861 -1.07679 -2.5294 37.62182 1.36395 14.71079 7.03746 -79.35538 -2.77012 2.99623 12.26547 7.25118 16.8747 -27.29848 -12.93164 -1.45048 -10.30222 -8.45488 4.68276 25.91641 -1.5789 -3.47205 2.68643 7.75621
0.01697 0.95797 0.03792 155.53136 0 -7.84116 0.99016 -0.73869 -13.17218 -44.24809 12.93183 16.2407 31.9133 -34.6741 16.35065 12.55246 82.12948 -0.58787 -2.03335 38.10406 1.25398 15.34435 7.12347 -79.37685 -2.83806 3.06965 12.12185 7.27012 15.52192 -25.78998 -13.02395 -1.45118 -10.52187 -8.62286 4.82922 26.17889 -1.50742 -3.46244 2.71385 7.85759
0.0148 0.95804 0.03605 155.2786 0 -7.98911 1.11285 -0.74658 -12.9537 -44.36955 12.95421 16.43672 31.37895 -35.00924 16.10254 12.04256 82.17143 -0.07741 -1.54111 38.56554 1.10594 15.32818 7.26697 -79.44094 -2.90921 3.16077 11.82246 7.21649 14.01612 -23.76589 -13.17289 -1.44634 -10.84539 -8.83042 4.93516 26.47942 -1.40775 -3.46261 2.74812 7.96892
0.01276 0.95816 0.03428 155.04675 0 -8.15055 1.23094 -0.77642 -12.78747 -44.51071 12.99389 16.64578 30.84347 -35.33584 15.84508 11.53759 82.20407 0.41136 -1.05292 39.03059 0.97359 15.58651 7.38224 -79.48341 -2.9775 3.23945 11.59285 7.20199 12.51497 -21.98805 -13.30732 -1.44147 -11.10126 -9.02529 5.05904 26.75985 -1.31528 -3.45998 2.77812 8.07315
0.01085 0.95833 0.03272 154.80345 0 -8.31907 1.34208 -0.82364 -12.58385 -44.66018 13.04748 16.88402 30.22399 -35.68784 15.6035 11.00736 82.21687 0.95412 -0.53511 39.52235 0.84865 15.94037 7.50741 -79.53493 -3.0523 3.33775 11.36205 7.15843 11.26319 -20.14361 -13.39284 -1.44762 -11.4394 -9.19844 5.18602 27.05234 -1.24497 -3.45188 2.81258 8.18723
0.00859 0.95836 0.03064 154.57457 0 -8.46385 1.47104 -0.82134 -12.43594 -44.7797 13.06139 17.05025 29.79194 -35.98752 15.33793 10.53415 82.27746 1.38668 -0.08407 39.95294 0.69911 15.92858 7.62567 -79.57784 -3.11379 3.39862 11.09847 7.15899 9.47273 -18.32511 -13.5931 -1.42962 -11.63389 -9.42502 5.29674 27.32781 -1.12505 -3.45578 2.83963 8.28324
0.00553 0.95809 0.02723 154.38028 0 -8.56078 1.64263 -0.69926 -12.46219 -44.84277 12.98052 17.04108 29.86202 -36.15087 14.97007 10.19228 82.4713 1.52684 0.20935 40.21889 0.48966 15.17829 7.7059 -79.5881 -3.14146 3.35725 10.78663 7.30398 6.13957 -16.66236 -14.11006 -1.34379 -11.3876 -9.80103 5.37017 27.55737 -0.84281 -3.50452 2.84336 8.33119
0.00212 0.95768 0.02329 154.20375 0 -8.63333 1.83224 -0.52884 -12.54836 -44.87486 12.86075 16.95865 30.12127 -36.25944 14.5872 9.91383 82.71048 1.55161 0.42994 40.42458 0.25698 14.05999 7.77841 -79.58864 -3.15497 3.27721 10.44717 7.49563 2.29049 -15.05337 -14.73785 -1.23436 -10.99681 -10.22719 5.42928 27.76653 -0.51785 -3.56238 2.83969 8.36022
-0.00116 0.95731 0.01956 154.0277 0 -8.71034 2.01532 -0.3796 -12.60951 -44.91142 12.75686 16.90219 30.29644 -36.38749 14.23302 9.6235 82.92319 1.61795 0.66729 40.65719 0.03558 13.03942 7.8567 -79.59189 -3.17236 3.21031 10.11859 7.66303 -1.2611 -13.44877 -15.30698 -1.13714 -10.685 -10.62302 5.49577 27.97849 -0.23285 -3.6067 2.84015 8.39506
